PathFileType	4	(X/Y/Z)	/home/nbianco/projects/addbio/data/HamnerRunning2013/Processed/subject20//results/MarkerData/run400.trc
DataRate	CameraRate	NumFrames	NumMarkers	Units	OrigDataRate	OrigDataStartFrame	OrigNumFrames
119.99	119.99	10	42	m	119.99	203	232
Frame#	Time	C7			CLAV			LACR			LASI			LCAL			LFAradius			LFAsuperior			LFAulna			LLEL			LMEL			LMT5			LPSI			LTB1			LTB2			LTB3			LTH1			LTH2			LTH3			LTOE			LUA1			LUA2			LUA3			RACR			RASI			RCAL			RFAradius			RFAsuperior			RFAulna			RLEL			RMEL			RMT5			RPSI			RTB1			RTB2			RTB3			RTH1			RTH2			RTH3			RTOE			RUA1			RUA2			RUA3		
		X1	Y1	Z1	X2	Y2	Z2	X3	Y3	Z3	X4	Y4	Z4	X5	Y5	Z5	X6	Y6	Z6	X7	Y7	Z7	X8	Y8	Z8	X9	Y9	Z9	X10	Y10	Z10	X11	Y11	Z11	X12	Y12	Z12	X13	Y13	Z13	X14	Y14	Z14	X15	Y15	Z15	X16	Y16	Z16	X17	Y17	Z17	X18	Y18	Z18	X19	Y19	Z19	X20	Y20	Z20	X21	Y21	Z21	X22	Y22	Z22	X23	Y23	Z23	X24	Y24	Z24	X25	Y25	Z25	X26	Y26	Z26	X27	Y27	Z27	X28	Y28	Z28	X29	Y29	Z29	X30	Y30	Z30	X31	Y31	Z31	X32	Y32	Z32	X33	Y33	Z33	X34	Y34	Z34	X35	Y35	Z35	X36	Y36	Z36	X37	Y37	Z37	X38	Y38	Z38	X39	Y39	Z39	X40	Y40	Z40	X41	Y41	Z41	X42	Y42	Z42

204	1.775	0.710242	1.46468	-0.403369	0.839292	1.36592	-0.382641	0.723183	1.40486	-0.586749	0.741333	0.972379	-0.502491	0.649942	0.103253	-0.414386	0.822276	1.17943	-0.687868	0.66477	1.20506	-0.765552	0.815495	1.12536	-0.728972	0.592834	1.2049	-0.765634	0.56044	1.14267	-0.70746	0.835982	0.060057	-0.497955	0.573825	0.987936	-0.398869	0.865337	0.374188	-0.449599	0.801338	0.276616	-0.496298	0.796305	0.196861	-0.417983	0.722723	0.838738	-0.550764	0.817927	0.75368	-0.538576	0.803905	0.601511	-0.535172	0.866262	0.0735232	-0.410579	0.675438	1.35319	-0.6451	0.604891	1.29674	-0.636838	0.641412	1.28369	-0.703823	0.768608	1.41967	-0.210421	0.760251	0.958903	-0.254576	0.31192	0.664278	-0.33472	0.854649	1.0716	-0.203223	0.749101	1.13162	-0.084721	0.824226	1.01856	-0.170473	0.680046	1.16568	-0.0479592	0.612185	1.14773	-0.103881	0.187309	0.542403	-0.222692	0.58399	0.987513	-0.31354	0.540762	0.441979	-0.289002	0.488452	0.503761	-0.24038	0.379112	0.522076	-0.309151	0.709413	0.769744	-0.219097	0.754284	0.648829	-0.237842	0.669521	0.537229	-0.227742	0.186103	0.486606	-0.300429	0.738533	1.31732	-0.140815	0.743989	1.24521	-0.141102	0.657459	1.25183	-0.0833748
205	1.78333	0.710443	1.46384	-0.404457	0.839784	1.36386	-0.379932	0.723419	1.4014	-0.587659	0.7396	0.972448	-0.504394	0.616977	0.104126	-0.414652	0.836211	1.17695	-0.685344	0.679878	1.19662	-0.764478	0.832664	1.12348	-0.728089	0.607811	1.19316	-0.76745	0.577651	1.12884	-0.711617	0.80234	0.0592472	-0.498197	0.572827	0.989704	-0.397402	0.84472	0.367976	-0.452242	0.775361	0.272625	-0.496951	0.767937	0.193906	-0.418834	0.717894	0.838483	-0.551588	0.809284	0.749548	-0.540344	0.788177	0.596517	-0.535231	0.832998	0.072456	-0.410831	0.677357	1.34606	-0.64576	0.611099	1.28388	-0.636961	0.648465	1.27467	-0.704375	0.765382	1.41792	-0.209808	0.757553	0.958779	-0.252861	0.335907	0.663981	-0.331689	0.843833	1.05745	-0.193939	0.737072	1.12782	-0.0832182	0.80976	1.00729	-0.160032	0.668383	1.16596	-0.0493041	0.602187	1.14838	-0.106871	0.214178	0.539834	-0.219145	0.582112	0.988751	-0.311816	0.564887	0.439733	-0.28727	0.513433	0.501473	-0.238038	0.403711	0.520164	-0.306023	0.713175	0.768202	-0.218416	0.765976	0.649849	-0.236804	0.688701	0.535652	-0.225085	0.211219	0.484773	-0.297079	0.732585	1.31612	-0.140988	0.734817	1.24377	-0.14301	0.647727	1.25224	-0.0870581
206	1.79167	0.710236	1.4638	-0.404977	0.839386	1.364	-0.377628	0.723885	1.399	-0.588025	0.738196	0.973834	-0.506493	0.583385	0.104769	-0.415033	0.850443	1.17587	-0.681277	0.695141	1.18943	-0.762271	0.849804	1.12327	-0.725728	0.623069	1.18289	-0.76772	0.595556	1.11691	-0.713879	0.768293	0.0586857	-0.498606	0.571586	0.991987	-0.397277	0.821739	0.360512	-0.454403	0.747423	0.267615	-0.496941	0.737691	0.190415	-0.419159	0.71356	0.838219	-0.552062	0.798872	0.743872	-0.541503	0.769399	0.591231	-0.534347	0.79915	0.0716149	-0.411129	0.680129	1.34032	-0.6459	0.618346	1.27276	-0.635514	0.655647	1.26719	-0.703662	0.761687	1.4176	-0.209352	0.754531	0.960464	-0.251053	0.35784	0.662022	-0.327903	0.831927	1.04612	-0.184924	0.724631	1.12589	-0.0819811	0.794095	0.998794	-0.150884	0.656429	1.16795	-0.050875	0.591727	1.15077	-0.11008	0.240931	0.53242	-0.216509	0.580088	0.99085	-0.311118	0.590249	0.438537	-0.285959	0.539327	0.499408	-0.235802	0.428903	0.517139	-0.303356	0.71709	0.768147	-0.217821	0.778616	0.652745	-0.236302	0.708846	0.536108	-0.222807	0.237117	0.479288	-0.295789	0.726168	1.31661	-0.141021	0.726252	1.24422	-0.144029	0.637671	1.25419	-0.0910738
207	1.8	0.709456	1.46431	-0.405009	0.838458	1.36586	-0.375607	0.725036	1.39778	-0.587848	0.736967	0.975708	-0.508162	0.549659	0.105384	-0.415326	0.864478	1.17646	-0.675581	0.71003	1.18362	-0.759242	0.866495	1.12486	-0.721651	0.637941	1.17426	-0.766463	0.613678	1.10718	-0.713801	0.734169	0.0584582	-0.499108	0.56975	0.994349	-0.398346	0.796779	0.35344	-0.455664	0.718515	0.263138	-0.496628	0.706521	0.187557	-0.419073	0.709006	0.838068	-0.552412	0.786889	0.737464	-0.542521	0.749508	0.587095	-0.533369	0.765161	0.0711176	-0.411536	0.68417	1.33599	-0.645628	0.626397	1.26403	-0.633117	0.663158	1.26122	-0.701996	0.757582	1.41863	-0.208899	0.751467	0.962818	-0.249898	0.377316	0.658174	-0.323651	0.81945	1.03846	-0.176377	0.711559	1.12567	-0.0804465	0.777833	0.993606	-0.143317	0.643913	1.1715	-0.0522728	0.580975	1.15489	-0.113409	0.267144	0.520753	-0.214826	0.577875	0.992802	-0.311787	0.61659	0.438957	-0.284864	0.565642	0.498073	-0.233699	0.454081	0.513358	-0.301259	0.721242	0.769747	-0.217214	0.791949	0.6579	-0.236036	0.729553	0.538719	-0.220912	0.263749	0.470314	-0.296307	0.719072	1.31876	-0.14079	0.718166	1.24646	-0.143492	0.627291	1.25771	-0.0950371
208	1.80833	0.708307	1.46545	-0.404719	0.837453	1.36877	-0.373463	0.727163	1.39782	-0.587275	0.735748	0.977516	-0.508908	0.51616	0.106186	-0.41545	0.877767	1.17887	-0.668426	0.724159	1.17934	-0.755536	0.882351	1.12818	-0.715765	0.65202	1.16736	-0.763822	0.631458	1.09983	-0.711254	0.700204	0.0583986	-0.499575	0.567617	0.996816	-0.400188	0.770338	0.348172	-0.455981	0.689401	0.260282	-0.496355	0.675264	0.186005	-0.418864	0.703437	0.838116	-0.552743	0.773945	0.73159	-0.543642	0.729924	0.584833	-0.532852	0.731394	0.0707828	-0.412052	0.689491	1.33313	-0.645019	0.63482	1.25812	-0.630538	0.671158	1.25672	-0.699704	0.753116	1.4209	-0.208299	0.748681	0.965108	-0.249731	0.394229	0.652089	-0.319268	0.806934	1.035	-0.168363	0.697714	1.12714	-0.0783647	0.761725	0.992021	-0.137404	0.630672	1.17645	-0.0533062	0.570209	1.16063	-0.116803	0.292616	0.505542	-0.214068	0.575711	0.994409	-0.313692	0.643652	0.441323	-0.283926	0.59173	0.497705	-0.23197	0.478702	0.509023	-0.299733	0.725642	0.773074	-0.216437	0.805606	0.665575	-0.235878	0.750456	0.543754	-0.219388	0.291112	0.458048	-0.297998	0.711285	1.3225	-0.140288	0.710183	1.25042	-0.14138	0.616612	1.26275	-0.098675
209	1.81667	0.707226	1.4675	-0.404335	0.836645	1.37231	-0.370863	0.730338	1.39912	-0.586511	0.734507	0.979096	-0.508856	0.482965	0.107403	-0.415512	0.889849	1.1831	-0.660203	0.737357	1.17676	-0.751131	0.897082	1.13301	-0.70816	0.665246	1.16227	-0.760029	0.648232	1.09497	-0.706499	0.666438	0.0583608	-0.499927	0.565852	0.999579	-0.402345	0.742898	0.345231	-0.455597	0.660295	0.259366	-0.496275	0.644165	0.185789	-0.418793	0.696499	0.838424	-0.552979	0.760953	0.72735	-0.544656	0.711264	0.584281	-0.532851	0.697913	0.0704035	-0.412653	0.695804	1.33184	-0.64409	0.643181	1.25512	-0.628347	0.679676	1.25372	-0.696967	0.748311	1.42434	-0.207571	0.746519	0.96738	-0.25036	0.408826	0.64344	-0.315141	0.79477	1.03579	-0.160871	0.683285	1.13054	-0.0759012	0.746438	0.994031	-0.133026	0.616836	1.18274	-0.0540685	0.559652	1.16782	-0.120218	0.317464	0.48742	-0.214188	0.573946	0.996133	-0.316349	0.670983	0.445476	-0.283214	0.616898	0.498206	-0.23092	0.502553	0.504102	-0.298789	0.730287	0.778034	-0.215498	0.819135	0.67573	-0.235929	0.771187	0.551412	-0.218268	0.319266	0.44277	-0.300178	0.703	1.32778	-0.139643	0.701899	1.25599	-0.138345	0.605717	1.26924	-0.101898
210	1.825	0.706579	1.47065	-0.404055	0.836057	1.37638	-0.367754	0.734454	1.40166	-0.585695	0.73338	0.980515	-0.508745	0.450055	0.109366	-0.415791	0.90045	1.18899	-0.651338	0.74965	1.17597	-0.745941	0.910495	1.13906	-0.699038	0.67778	1.15906	-0.755384	0.663352	1.09256	-0.70013	0.632807	0.0583339	-0.500168	0.565017	1.00276	-0.404465	0.714866	0.344319	-0.454887	0.631015	0.260206	-0.496373	0.613049	0.186653	-0.419014	0.688631	0.839106	-0.552991	0.748737	0.725176	-0.545108	0.693421	0.584875	-0.533008	0.664603	0.0699573	-0.413352	0.702763	1.33216	-0.642852	0.651204	1.25483	-0.626728	0.688629	1.25234	-0.693852	0.7432	1.42887	-0.206907	0.745247	0.970226	-0.251403	0.421689	0.631992	-0.311692	0.78315	1.0404	-0.153894	0.668818	1.13621	-0.073464	0.732359	0.999313	-0.129886	0.602839	1.19046	-0.0548183	0.549362	1.1763	-0.123579	0.342157	0.466883	-0.215106	0.572833	0.998595	-0.319176	0.697945	0.450761	-0.282857	0.640646	0.499235	-0.230708	0.525846	0.498399	-0.298522	0.735202	0.784405	-0.214632	0.832073	0.687972	-0.236363	0.791374	0.561575	-0.217626	0.348397	0.424867	-0.302378	0.69451	1.33443	-0.139042	0.693127	1.26302	-0.135306	0.594783	1.27704	-0.104759
211	1.83333	0.706443	1.47488	-0.403946	0.835564	1.38118	-0.36431	0.739284	1.40536	-0.584838	0.732576	0.981833	-0.509396	0.417542	0.112549	-0.416604	0.909494	1.19622	-0.64209	0.761158	1.17691	-0.739969	0.92244	1.14594	-0.6886	0.689784	1.15776	-0.750245	0.676377	1.09243	-0.692914	0.599245	0.0583829	-0.500328	0.565294	1.00635	-0.406347	0.686588	0.344863	-0.454203	0.601386	0.26256	-0.496563	0.58181	0.188462	-0.419579	0.680967	0.840313	-0.552739	0.737696	0.724754	-0.544702	0.675856	0.586273	-0.532815	0.631414	0.0696173	-0.414179	0.710103	1.33404	-0.641354	0.658794	1.25679	-0.625552	0.697883	1.25265	-0.690441	0.737876	1.43435	-0.20651	0.744926	0.974227	-0.252697	0.433598	0.617617	-0.309285	0.772104	1.04801	-0.147474	0.654962	1.14429	-0.0714228	0.719545	1.00728	-0.127545	0.589232	1.19965	-0.0557806	0.539252	1.18589	-0.126784	0.367428	0.444347	-0.21666	0.572458	1.00214	-0.321721	0.72398	0.456337	-0.282957	0.662863	0.500381	-0.23126	0.548999	0.491717	-0.29904	0.74043	0.791966	-0.214136	0.844057	0.701658	-0.23722	0.810662	0.573736	-0.217517	0.378804	0.40483	-0.304414	0.686107	1.34222	-0.138615	0.684006	1.27122	-0.132932	0.584083	1.28601	-0.107365
212	1.84167	0.706625	1.47992	-0.403904	0.835034	1.38686	-0.360731	0.744545	1.41012	-0.583828	0.732268	0.983036	-0.511115	0.385752	0.117455	-0.418128	0.917034	1.20437	-0.632483	0.771966	1.17937	-0.733386	0.932781	1.15329	-0.676984	0.701275	1.15833	-0.744984	0.68721	1.09432	-0.68562	0.565709	0.0585454	-0.500392	0.566524	1.01029	-0.407948	0.658376	0.346551	-0.453738	0.571548	0.266389	-0.496799	0.550714	0.191343	-0.420477	0.674801	0.842117	-0.552289	0.727781	0.725396	-0.543506	0.658025	0.58861	-0.531896	0.598467	0.0696067	-0.415115	0.717636	1.33733	-0.63968	0.665956	1.26051	-0.624603	0.707293	1.25465	-0.686921	0.732512	1.44057	-0.206417	0.745376	0.979529	-0.254402	0.445347	0.600288	-0.308124	0.761578	1.05768	-0.141656	0.642155	1.15443	-0.0699183	0.707845	1.01717	-0.125515	0.57644	1.21012	-0.0570191	0.529251	1.19639	-0.129752	0.394094	0.420251	-0.218574	0.572813	1.0067	-0.323768	0.748879	0.461605	-0.283531	0.683825	0.50128	-0.232332	0.572286	0.484013	-0.300319	0.745991	0.800562	-0.214112	0.854902	0.716096	-0.238341	0.828741	0.587137	-0.217907	0.410809	0.383215	-0.306303	0.678024	1.35088	-0.138379	0.674918	1.28023	-0.131358	0.573937	1.29595	-0.109788
213	1.85	0.706855	1.48544	-0.40371	0.834396	1.39342	-0.357105	0.749948	1.4158	-0.582512	0.732568	0.984158	-0.513507	0.355121	0.124429	-0.420331	0.92316	1.21294	-0.622428	0.782056	1.18311	-0.72651	0.941396	1.16075	-0.664312	0.712118	1.16064	-0.739924	0.696048	1.09792	-0.678887	0.53218	0.0587948	-0.500294	0.56842	1.01457	-0.409359	0.630508	0.349511	-0.453472	0.54198	0.271863	-0.497152	0.52034	0.195582	-0.421688	0.670907	0.844428	-0.551739	0.718733	0.726531	-0.541856	0.6398	0.592306	-0.530196	0.56598	0.0700077	-0.416065	0.725172	1.34185	-0.637903	0.672686	1.26559	-0.623771	0.716673	1.25817	-0.683524	0.727322	1.44725	-0.206471	0.746283	0.985813	-0.256738	0.457596	0.580086	-0.3082	0.751531	1.06854	-0.136394	0.630489	1.16596	-0.0688472	0.697082	1.02821	-0.123367	0.564642	1.22152	-0.0584431	0.519465	1.20754	-0.132471	0.422853	0.395102	-0.220523	0.573891	1.01197	-0.325302	0.772791	0.466457	-0.284497	0.703984	0.501665	-0.233644	0.595659	0.475389	-0.302141	0.751861	0.810067	-0.214397	0.864613	0.730744	-0.23946	0.845354	0.601011	-0.218664	0.444637	0.360594	-0.308154	0.670437	1.36013	-0.138255	0.666293	1.28971	-0.130271	0.564614	1.30658	-0.112034
